<svg width="1920" height="956" viewBox="0 0 1920 956" fill="none" xmlns="http://www.w3.org/2000/svg">
<mask id="mask0_503_4545" style="mask-type:alpha" maskUnits="userSpaceOnUse" x="0" y="0" width="1920" height="956">
<rect width="1920" height="956" fill="#F9FAFB"/>
</mask>
<g mask="url(#mask0_503_4545)">
<g opacity="0.1">
<path fill-rule="evenodd" clip-rule="evenodd" d="M-534.004 1219L-534.004 459L-532.796 459L-532.796 1219H-534.004Z" fill="url(#paint0_linear_503_4545)"/>
<path fill-rule="evenodd" clip-rule="evenodd" d="M-494.135 1219L-494.135 459L-492.927 459L-492.927 1219H-494.135Z" fill="url(#paint1_linear_503_4545)"/>
<path fill-rule="evenodd" clip-rule="evenodd" d="M-454.267 1219L-454.266 459L-453.058 459L-453.058 1219H-454.267Z" fill="url(#paint2_linear_503_4545)"/>
<path fill-rule="evenodd" clip-rule="evenodd" d="M-414.398 1219L-414.398 459L-413.189 459L-413.189 1219H-414.398Z" fill="url(#paint3_linear_503_4545)"/>
<path fill-rule="evenodd" clip-rule="evenodd" d="M-374.529 1219L-374.529 459L-373.32 459L-373.32 1219H-374.529Z" fill="url(#paint4_linear_503_4545)"/>
<path fill-rule="evenodd" clip-rule="evenodd" d="M-334.66 1219L-334.66 459L-333.451 459L-333.451 1219H-334.66Z" fill="url(#paint5_linear_503_4545)"/>
<path fill-rule="evenodd" clip-rule="evenodd" d="M-294.791 1219L-294.791 459L-293.583 459L-293.583 1219H-294.791Z" fill="url(#paint6_linear_503_4545)"/>
<path fill-rule="evenodd" clip-rule="evenodd" d="M-254.922 1219L-254.922 459L-253.714 459L-253.714 1219H-254.922Z" fill="url(#paint7_linear_503_4545)"/>
<path fill-rule="evenodd" clip-rule="evenodd" d="M-215.053 1219L-215.053 459L-213.845 459L-213.845 1219H-215.053Z" fill="url(#paint8_linear_503_4545)"/>
<path fill-rule="evenodd" clip-rule="evenodd" d="M-175.184 1219L-175.184 459L-173.976 459L-173.976 1219H-175.184Z" fill="url(#paint9_linear_503_4545)"/>
<path fill-rule="evenodd" clip-rule="evenodd" d="M-135.315 1219L-135.315 459L-134.107 459L-134.107 1219H-135.315Z" fill="url(#paint10_linear_503_4545)"/>
<path fill-rule="evenodd" clip-rule="evenodd" d="M-95.446 1219L-95.4459 459L-94.2377 459L-94.2378 1219H-95.446Z" fill="url(#paint11_linear_503_4545)"/>
<path fill-rule="evenodd" clip-rule="evenodd" d="M-55.577 1219L-55.577 459L-54.3688 459L-54.3689 1219H-55.577Z" fill="url(#paint12_linear_503_4545)"/>
<path fill-rule="evenodd" clip-rule="evenodd" d="M-15.7081 1219V459L-14.4999 459V1219H-15.7081Z" fill="url(#paint13_linear_503_4545)"/>
<path fill-rule="evenodd" clip-rule="evenodd" d="M24.1609 1219V459L25.3691 459L25.369 1219H24.1609Z" fill="url(#paint14_linear_503_4545)"/>
<path fill-rule="evenodd" clip-rule="evenodd" d="M64.0299 1219V459L65.238 459V1219H64.0299Z" fill="url(#paint15_linear_503_4545)"/>
<path fill-rule="evenodd" clip-rule="evenodd" d="M103.899 1219L103.899 459L105.107 459V1219H103.899Z" fill="url(#paint16_linear_503_4545)"/>
<path fill-rule="evenodd" clip-rule="evenodd" d="M143.768 1219L143.768 459L144.976 459L144.976 1219H143.768Z" fill="url(#paint17_linear_503_4545)"/>
<path fill-rule="evenodd" clip-rule="evenodd" d="M183.637 1219L183.637 459L184.845 459L184.845 1219H183.637Z" fill="url(#paint18_linear_503_4545)"/>
<path fill-rule="evenodd" clip-rule="evenodd" d="M223.505 1219L223.506 459L224.714 459L224.714 1219H223.505Z" fill="url(#paint19_linear_503_4545)"/>
<path fill-rule="evenodd" clip-rule="evenodd" d="M263.374 1219L263.374 459L264.583 459L264.583 1219H263.374Z" fill="url(#paint20_linear_503_4545)"/>
<path fill-rule="evenodd" clip-rule="evenodd" d="M303.243 1219L303.243 459L304.452 459L304.451 1219H303.243Z" fill="url(#paint21_linear_503_4545)"/>
<path fill-rule="evenodd" clip-rule="evenodd" d="M343.112 1219L343.112 459L344.32 459L344.32 1219H343.112Z" fill="url(#paint22_linear_503_4545)"/>
<path fill-rule="evenodd" clip-rule="evenodd" d="M382.981 1219V459L384.189 459V1219H382.981Z" fill="url(#paint23_linear_503_4545)"/>
<path fill-rule="evenodd" clip-rule="evenodd" d="M422.85 1219L422.85 459L424.058 459L424.058 1219H422.85Z" fill="url(#paint24_linear_503_4545)"/>
<path fill-rule="evenodd" clip-rule="evenodd" d="M462.719 1219L462.719 459L463.927 459L463.927 1219H462.719Z" fill="url(#paint25_linear_503_4545)"/>
<path fill-rule="evenodd" clip-rule="evenodd" d="M502.588 1219V459L503.796 459L503.796 1219H502.588Z" fill="url(#paint26_linear_503_4545)"/>
<path fill-rule="evenodd" clip-rule="evenodd" d="M542.457 1219V459L543.665 459V1219H542.457Z" fill="url(#paint27_linear_503_4545)"/>
<path fill-rule="evenodd" clip-rule="evenodd" d="M582.326 1219V459L583.534 459V1219H582.326Z" fill="url(#paint28_linear_503_4545)"/>
<path fill-rule="evenodd" clip-rule="evenodd" d="M622.195 1219V459L623.403 459V1219H622.195Z" fill="url(#paint29_linear_503_4545)"/>
<path fill-rule="evenodd" clip-rule="evenodd" d="M662.064 1219V459L663.272 459V1219H662.064Z" fill="url(#paint30_linear_503_4545)"/>
<path fill-rule="evenodd" clip-rule="evenodd" d="M701.932 1219V459L703.141 459V1219H701.932Z" fill="url(#paint31_linear_503_4545)"/>
<path fill-rule="evenodd" clip-rule="evenodd" d="M741.802 1219V459L743.01 459V1219H741.802Z" fill="url(#paint32_linear_503_4545)"/>
<path fill-rule="evenodd" clip-rule="evenodd" d="M781.67 1219V459L782.879 459V1219H781.67Z" fill="url(#paint33_linear_503_4545)"/>
<path fill-rule="evenodd" clip-rule="evenodd" d="M821.539 1219V459L822.747 459V1219H821.539Z" fill="url(#paint34_linear_503_4545)"/>
<path fill-rule="evenodd" clip-rule="evenodd" d="M861.408 1219V459L862.616 459V1219H861.408Z" fill="url(#paint35_linear_503_4545)"/>
<path fill-rule="evenodd" clip-rule="evenodd" d="M901.277 1219V459L902.485 459V1219H901.277Z" fill="url(#paint36_linear_503_4545)"/>
<path fill-rule="evenodd" clip-rule="evenodd" d="M941.146 1219V459L942.354 459V1219H941.146Z" fill="url(#paint37_linear_503_4545)"/>
<path fill-rule="evenodd" clip-rule="evenodd" d="M981.015 1219V459L982.223 459V1219H981.015Z" fill="url(#paint38_linear_503_4545)"/>
<path fill-rule="evenodd" clip-rule="evenodd" d="M1020.88 1219V459L1022.09 459V1219H1020.88Z" fill="url(#paint39_linear_503_4545)"/>
<path fill-rule="evenodd" clip-rule="evenodd" d="M1060.75 1219V459L1061.96 459V1219H1060.75Z" fill="url(#paint40_linear_503_4545)"/>
<path fill-rule="evenodd" clip-rule="evenodd" d="M1088.54 1197.29H-563V1196.08H1088.54V1197.29Z" fill="url(#paint41_linear_503_4545)"/>
<path fill-rule="evenodd" clip-rule="evenodd" d="M1088.54 1157.48H-563V1156.27H1088.54V1157.48Z" fill="url(#paint42_linear_503_4545)"/>
<path fill-rule="evenodd" clip-rule="evenodd" d="M1088.54 1117.67H-563V1116.46H1088.54V1117.67Z" fill="url(#paint43_linear_503_4545)"/>
<path fill-rule="evenodd" clip-rule="evenodd" d="M1088.54 1077.86H-563V1076.65H1088.54V1077.86Z" fill="url(#paint44_linear_503_4545)"/>
<path fill-rule="evenodd" clip-rule="evenodd" d="M1088.54 1038.05H-563V1036.84H1088.54V1038.05Z" fill="url(#paint45_linear_503_4545)"/>
<path fill-rule="evenodd" clip-rule="evenodd" d="M1088.54 998.239H-563V997.032H1088.54V998.239Z" fill="url(#paint46_linear_503_4545)"/>
<path fill-rule="evenodd" clip-rule="evenodd" d="M1088.54 958.429H-563V957.223H1088.54V958.429Z" fill="url(#paint47_linear_503_4545)"/>
<path fill-rule="evenodd" clip-rule="evenodd" d="M1088.54 918.62H-563V917.413H1088.54V918.62Z" fill="url(#paint48_linear_503_4545)"/>
<path fill-rule="evenodd" clip-rule="evenodd" d="M1088.54 878.81H-563V877.604H1088.54V878.81Z" fill="url(#paint49_linear_503_4545)"/>
<path fill-rule="evenodd" clip-rule="evenodd" d="M1088.54 839H-563V837.794H1088.54V839Z" fill="url(#paint50_linear_503_4545)"/>
<path fill-rule="evenodd" clip-rule="evenodd" d="M1088.54 799.19H-563V797.984H1088.54V799.19Z" fill="url(#paint51_linear_503_4545)"/>
<path fill-rule="evenodd" clip-rule="evenodd" d="M1088.54 759.381H-563V758.175H1088.54V759.381Z" fill="url(#paint52_linear_503_4545)"/>
<path fill-rule="evenodd" clip-rule="evenodd" d="M1088.54 719.571H-563V718.365H1088.54V719.571Z" fill="url(#paint53_linear_503_4545)"/>
<path fill-rule="evenodd" clip-rule="evenodd" d="M1088.54 679.762H-563V678.556H1088.54V679.762Z" fill="url(#paint54_linear_503_4545)"/>
<path fill-rule="evenodd" clip-rule="evenodd" d="M1088.54 639.952H-563V638.746H1088.54V639.952Z" fill="url(#paint55_linear_503_4545)"/>
<path fill-rule="evenodd" clip-rule="evenodd" d="M1088.54 600.143H-563V598.937H1088.54V600.143Z" fill="url(#paint56_linear_503_4545)"/>
<path fill-rule="evenodd" clip-rule="evenodd" d="M1088.54 560.333H-563V559.127H1088.54V560.333Z" fill="url(#paint57_linear_503_4545)"/>
<path fill-rule="evenodd" clip-rule="evenodd" d="M1088.54 520.524H-563V519.317H1088.54V520.524Z" fill="url(#paint58_linear_503_4545)"/>
<path fill-rule="evenodd" clip-rule="evenodd" d="M1088.54 480.714H-563V479.507H1088.54V480.714Z" fill="url(#paint59_linear_503_4545)"/>
<path fill-rule="evenodd" clip-rule="evenodd" d="M861.336 1219V459L862.544 459V1219H861.336Z" fill="url(#paint60_linear_503_4545)"/>
<path fill-rule="evenodd" clip-rule="evenodd" d="M901.205 1219L901.205 459L902.413 459L902.413 1219H901.205Z" fill="url(#paint61_linear_503_4545)"/>
<path fill-rule="evenodd" clip-rule="evenodd" d="M941.074 1219V459L942.282 459V1219H941.074Z" fill="url(#paint62_linear_503_4545)"/>
<path fill-rule="evenodd" clip-rule="evenodd" d="M980.943 1219V459L982.151 459V1219H980.943Z" fill="url(#paint63_linear_503_4545)"/>
<path fill-rule="evenodd" clip-rule="evenodd" d="M1020.81 1219V459L1022.02 459L1022.02 1219H1020.81Z" fill="url(#paint64_linear_503_4545)"/>
<path fill-rule="evenodd" clip-rule="evenodd" d="M1060.68 1219V459L1061.89 459V1219H1060.68Z" fill="url(#paint65_linear_503_4545)"/>
<path fill-rule="evenodd" clip-rule="evenodd" d="M1100.55 1219L1100.55 459L1101.76 459L1101.76 1219H1100.55Z" fill="url(#paint66_linear_503_4545)"/>
<path fill-rule="evenodd" clip-rule="evenodd" d="M1140.42 1219L1140.42 459L1141.63 459L1141.63 1219H1140.42Z" fill="url(#paint67_linear_503_4545)"/>
<path fill-rule="evenodd" clip-rule="evenodd" d="M1180.29 1219V459L1181.5 459V1219H1180.29Z" fill="url(#paint68_linear_503_4545)"/>
<path fill-rule="evenodd" clip-rule="evenodd" d="M1220.16 1219V459L1221.36 459V1219H1220.16Z" fill="url(#paint69_linear_503_4545)"/>
<path fill-rule="evenodd" clip-rule="evenodd" d="M1260.03 1219L1260.03 459L1261.23 459L1261.23 1219H1260.03Z" fill="url(#paint70_linear_503_4545)"/>
<path fill-rule="evenodd" clip-rule="evenodd" d="M1299.89 1219V459L1301.1 459V1219H1299.89Z" fill="url(#paint71_linear_503_4545)"/>
<path fill-rule="evenodd" clip-rule="evenodd" d="M1339.76 1219V459L1340.97 459V1219H1339.76Z" fill="url(#paint72_linear_503_4545)"/>
<path fill-rule="evenodd" clip-rule="evenodd" d="M1379.63 1219V459L1380.84 459V1219H1379.63Z" fill="url(#paint73_linear_503_4545)"/>
<path fill-rule="evenodd" clip-rule="evenodd" d="M1419.5 1219V459L1420.71 459V1219H1419.5Z" fill="url(#paint74_linear_503_4545)"/>
<path fill-rule="evenodd" clip-rule="evenodd" d="M1459.37 1219V459L1460.58 459V1219H1459.37Z" fill="url(#paint75_linear_503_4545)"/>
<path fill-rule="evenodd" clip-rule="evenodd" d="M1499.24 1219V459L1500.45 459V1219H1499.24Z" fill="url(#paint76_linear_503_4545)"/>
<path fill-rule="evenodd" clip-rule="evenodd" d="M1539.11 1219V459L1540.32 459V1219H1539.11Z" fill="url(#paint77_linear_503_4545)"/>
<path fill-rule="evenodd" clip-rule="evenodd" d="M1578.98 1219L1578.98 459L1580.19 459V1219H1578.98Z" fill="url(#paint78_linear_503_4545)"/>
<path fill-rule="evenodd" clip-rule="evenodd" d="M1618.85 1219L1618.85 459L1620.05 459L1620.05 1219H1618.85Z" fill="url(#paint79_linear_503_4545)"/>
<path fill-rule="evenodd" clip-rule="evenodd" d="M1658.71 1219L1658.71 459L1659.92 459L1659.92 1219H1658.71Z" fill="url(#paint80_linear_503_4545)"/>
<path fill-rule="evenodd" clip-rule="evenodd" d="M1698.58 1219V459L1699.79 459V1219H1698.58Z" fill="url(#paint81_linear_503_4545)"/>
<path fill-rule="evenodd" clip-rule="evenodd" d="M1738.45 1219V459L1739.66 459V1219H1738.45Z" fill="url(#paint82_linear_503_4545)"/>
<path fill-rule="evenodd" clip-rule="evenodd" d="M1778.32 1219V459L1779.53 459V1219H1778.32Z" fill="url(#paint83_linear_503_4545)"/>
<path fill-rule="evenodd" clip-rule="evenodd" d="M1818.19 1219V459L1819.4 459V1219H1818.19Z" fill="url(#paint84_linear_503_4545)"/>
<path fill-rule="evenodd" clip-rule="evenodd" d="M1858.06 1219V459L1859.27 459V1219H1858.06Z" fill="url(#paint85_linear_503_4545)"/>
<path fill-rule="evenodd" clip-rule="evenodd" d="M1897.93 1219L1897.93 459L1899.14 459L1899.14 1219H1897.93Z" fill="url(#paint86_linear_503_4545)"/>
<path fill-rule="evenodd" clip-rule="evenodd" d="M1937.8 1219L1937.8 459L1939.01 459L1939.01 1219H1937.8Z" fill="url(#paint87_linear_503_4545)"/>
<path fill-rule="evenodd" clip-rule="evenodd" d="M1977.67 1219V459L1978.87 459V1219H1977.67Z" fill="url(#paint88_linear_503_4545)"/>
<path fill-rule="evenodd" clip-rule="evenodd" d="M2017.54 1219V459L2018.74 459V1219H2017.54Z" fill="url(#paint89_linear_503_4545)"/>
<path fill-rule="evenodd" clip-rule="evenodd" d="M2057.4 1219V459L2058.61 459V1219H2057.4Z" fill="url(#paint90_linear_503_4545)"/>
<path fill-rule="evenodd" clip-rule="evenodd" d="M2097.27 1219V459L2098.48 459V1219H2097.27Z" fill="url(#paint91_linear_503_4545)"/>
<path fill-rule="evenodd" clip-rule="evenodd" d="M2137.14 1219V459L2138.35 459V1219H2137.14Z" fill="url(#paint92_linear_503_4545)"/>
<path fill-rule="evenodd" clip-rule="evenodd" d="M2177.01 1219V459L2178.22 459V1219H2177.01Z" fill="url(#paint93_linear_503_4545)"/>
<path fill-rule="evenodd" clip-rule="evenodd" d="M2216.88 1219V459L2218.09 459V1219H2216.88Z" fill="url(#paint94_linear_503_4545)"/>
<path fill-rule="evenodd" clip-rule="evenodd" d="M2256.75 1219V459L2257.96 459V1219H2256.75Z" fill="url(#paint95_linear_503_4545)"/>
<path fill-rule="evenodd" clip-rule="evenodd" d="M2296.62 1219V459L2297.83 459V1219H2296.62Z" fill="url(#paint96_linear_503_4545)"/>
<path fill-rule="evenodd" clip-rule="evenodd" d="M2336.49 1219V459L2337.69 459V1219H2336.49Z" fill="url(#paint97_linear_503_4545)"/>
<path fill-rule="evenodd" clip-rule="evenodd" d="M2376.36 1219V459L2377.56 459V1219H2376.36Z" fill="url(#paint98_linear_503_4545)"/>
<path fill-rule="evenodd" clip-rule="evenodd" d="M2416.22 1219V459L2417.43 459V1219H2416.22Z" fill="url(#paint99_linear_503_4545)"/>
<path fill-rule="evenodd" clip-rule="evenodd" d="M2456.09 1219V459L2457.3 459V1219H2456.09Z" fill="url(#paint100_linear_503_4545)"/>
<path fill-rule="evenodd" clip-rule="evenodd" d="M2483.88 1197.29H832.34V1196.08H2483.88V1197.29Z" fill="url(#paint101_linear_503_4545)"/>
<path fill-rule="evenodd" clip-rule="evenodd" d="M2483.88 1157.48H832.34V1156.27H2483.88V1157.48Z" fill="url(#paint102_linear_503_4545)"/>
<path fill-rule="evenodd" clip-rule="evenodd" d="M2483.88 1117.67H832.34V1116.46H2483.88V1117.67Z" fill="url(#paint103_linear_503_4545)"/>
<path fill-rule="evenodd" clip-rule="evenodd" d="M2483.88 1077.86H832.34V1076.65H2483.88V1077.86Z" fill="url(#paint104_linear_503_4545)"/>
<path fill-rule="evenodd" clip-rule="evenodd" d="M2483.88 1038.05H832.34V1036.84H2483.88V1038.05Z" fill="url(#paint105_linear_503_4545)"/>
<path fill-rule="evenodd" clip-rule="evenodd" d="M2483.88 998.239H832.34V997.032H2483.88V998.239Z" fill="url(#paint106_linear_503_4545)"/>
<path fill-rule="evenodd" clip-rule="evenodd" d="M2483.88 958.429H832.34V957.223H2483.88V958.429Z" fill="url(#paint107_linear_503_4545)"/>
<path fill-rule="evenodd" clip-rule="evenodd" d="M2483.88 918.62H832.34V917.413H2483.88V918.62Z" fill="url(#paint108_linear_503_4545)"/>
<path fill-rule="evenodd" clip-rule="evenodd" d="M2483.88 878.81H832.34V877.604H2483.88V878.81Z" fill="url(#paint109_linear_503_4545)"/>
<path fill-rule="evenodd" clip-rule="evenodd" d="M2483.88 839H832.34V837.794H2483.88V839Z" fill="url(#paint110_linear_503_4545)"/>
<path fill-rule="evenodd" clip-rule="evenodd" d="M2483.88 799.19H832.34V797.984H2483.88V799.19Z" fill="url(#paint111_linear_503_4545)"/>
<path fill-rule="evenodd" clip-rule="evenodd" d="M2483.88 759.381H832.34V758.175H2483.88V759.381Z" fill="url(#paint112_linear_503_4545)"/>
<path fill-rule="evenodd" clip-rule="evenodd" d="M2483.88 719.571H832.34V718.365H2483.88V719.571Z" fill="url(#paint113_linear_503_4545)"/>
<path fill-rule="evenodd" clip-rule="evenodd" d="M2483.88 679.762H832.34V678.556H2483.88V679.762Z" fill="url(#paint114_linear_503_4545)"/>
<path fill-rule="evenodd" clip-rule="evenodd" d="M2483.88 639.952H832.34V638.746H2483.88V639.952Z" fill="url(#paint115_linear_503_4545)"/>
<path fill-rule="evenodd" clip-rule="evenodd" d="M2483.88 600.143H832.34V598.937H2483.88V600.143Z" fill="url(#paint116_linear_503_4545)"/>
<path fill-rule="evenodd" clip-rule="evenodd" d="M2483.88 560.333H832.34V559.127H2483.88V560.333Z" fill="url(#paint117_linear_503_4545)"/>
<path fill-rule="evenodd" clip-rule="evenodd" d="M2483.88 520.524H832.34V519.317H2483.88V520.524Z" fill="url(#paint118_linear_503_4545)"/>
<path fill-rule="evenodd" clip-rule="evenodd" d="M2483.88 480.714H832.34V479.507H2483.88V480.714Z" fill="url(#paint119_linear_503_4545)"/>
</g>
<g opacity="0.55">
<g filter="url(#filter0_f_503_4545)">
<circle cx="1127.7" cy="1218" r="311" fill="#3935FB"/>
</g>
<g filter="url(#filter1_f_503_4545)">
<circle cx="792" cy="1218" r="311" fill="#48DCFF"/>
</g>
</g>
</g>
<defs>
<filter id="filter0_f_503_4545" x="416.704" y="507" width="1422" height="1422" filterUnits="userSpaceOnUse" color-interpolation-filters="sRGB">
<feFlood flood-opacity="0" result="BackgroundImageFix"/>
<feBlend mode="normal" in="SourceGraphic" in2="BackgroundImageFix" result="shape"/>
<feGaussianBlur stdDeviation="200" result="effect1_foregroundBlur_503_4545"/>
</filter>
<filter id="filter1_f_503_4545" x="81" y="507" width="1422" height="1422" filterUnits="userSpaceOnUse" color-interpolation-filters="sRGB">
<feFlood flood-opacity="0" result="BackgroundImageFix"/>
<feBlend mode="normal" in="SourceGraphic" in2="BackgroundImageFix" result="shape"/>
<feGaussianBlur stdDeviation="200" result="effect1_foregroundBlur_503_4545"/>
</filter>
<linearGradient id="paint0_linear_503_4545" x1="960.44" y1="419.5" x2="960.44" y2="842" gradientUnits="userSpaceOnUse">
<stop stop-color="#949494" stop-opacity="0"/>
<stop offset="1" stop-color="#8F8F8F"/>
</linearGradient>
<linearGradient id="paint1_linear_503_4545" x1="960.44" y1="419.5" x2="960.44" y2="842" gradientUnits="userSpaceOnUse">
<stop stop-color="#949494" stop-opacity="0"/>
<stop offset="1" stop-color="#8F8F8F"/>
</linearGradient>
<linearGradient id="paint2_linear_503_4545" x1="960.44" y1="419.5" x2="960.44" y2="842" gradientUnits="userSpaceOnUse">
<stop stop-color="#949494" stop-opacity="0"/>
<stop offset="1" stop-color="#8F8F8F"/>
</linearGradient>
<linearGradient id="paint3_linear_503_4545" x1="960.44" y1="419.5" x2="960.44" y2="842" gradientUnits="userSpaceOnUse">
<stop stop-color="#949494" stop-opacity="0"/>
<stop offset="1" stop-color="#8F8F8F"/>
</linearGradient>
<linearGradient id="paint4_linear_503_4545" x1="960.44" y1="419.5" x2="960.44" y2="842" gradientUnits="userSpaceOnUse">
<stop stop-color="#949494" stop-opacity="0"/>
<stop offset="1" stop-color="#8F8F8F"/>
</linearGradient>
<linearGradient id="paint5_linear_503_4545" x1="960.44" y1="419.5" x2="960.44" y2="842" gradientUnits="userSpaceOnUse">
<stop stop-color="#949494" stop-opacity="0"/>
<stop offset="1" stop-color="#8F8F8F"/>
</linearGradient>
<linearGradient id="paint6_linear_503_4545" x1="960.44" y1="419.5" x2="960.44" y2="842" gradientUnits="userSpaceOnUse">
<stop stop-color="#949494" stop-opacity="0"/>
<stop offset="1" stop-color="#8F8F8F"/>
</linearGradient>
<linearGradient id="paint7_linear_503_4545" x1="960.44" y1="419.5" x2="960.44" y2="842" gradientUnits="userSpaceOnUse">
<stop stop-color="#949494" stop-opacity="0"/>
<stop offset="1" stop-color="#8F8F8F"/>
</linearGradient>
<linearGradient id="paint8_linear_503_4545" x1="960.44" y1="419.5" x2="960.44" y2="842" gradientUnits="userSpaceOnUse">
<stop stop-color="#949494" stop-opacity="0"/>
<stop offset="1" stop-color="#8F8F8F"/>
</linearGradient>
<linearGradient id="paint9_linear_503_4545" x1="960.44" y1="419.5" x2="960.44" y2="842" gradientUnits="userSpaceOnUse">
<stop stop-color="#949494" stop-opacity="0"/>
<stop offset="1" stop-color="#8F8F8F"/>
</linearGradient>
<linearGradient id="paint10_linear_503_4545" x1="960.44" y1="419.5" x2="960.44" y2="842" gradientUnits="userSpaceOnUse">
<stop stop-color="#949494" stop-opacity="0"/>
<stop offset="1" stop-color="#8F8F8F"/>
</linearGradient>
<linearGradient id="paint11_linear_503_4545" x1="960.44" y1="419.5" x2="960.44" y2="842" gradientUnits="userSpaceOnUse">
<stop stop-color="#949494" stop-opacity="0"/>
<stop offset="1" stop-color="#8F8F8F"/>
</linearGradient>
<linearGradient id="paint12_linear_503_4545" x1="960.44" y1="419.5" x2="960.44" y2="842" gradientUnits="userSpaceOnUse">
<stop stop-color="#949494" stop-opacity="0"/>
<stop offset="1" stop-color="#8F8F8F"/>
</linearGradient>
<linearGradient id="paint13_linear_503_4545" x1="960.44" y1="419.5" x2="960.44" y2="842" gradientUnits="userSpaceOnUse">
<stop stop-color="#949494" stop-opacity="0"/>
<stop offset="1" stop-color="#8F8F8F"/>
</linearGradient>
<linearGradient id="paint14_linear_503_4545" x1="960.44" y1="419.5" x2="960.44" y2="842" gradientUnits="userSpaceOnUse">
<stop stop-color="#949494" stop-opacity="0"/>
<stop offset="1" stop-color="#8F8F8F"/>
</linearGradient>
<linearGradient id="paint15_linear_503_4545" x1="960.44" y1="419.5" x2="960.44" y2="842" gradientUnits="userSpaceOnUse">
<stop stop-color="#949494" stop-opacity="0"/>
<stop offset="1" stop-color="#8F8F8F"/>
</linearGradient>
<linearGradient id="paint16_linear_503_4545" x1="960.44" y1="419.5" x2="960.44" y2="842" gradientUnits="userSpaceOnUse">
<stop stop-color="#949494" stop-opacity="0"/>
<stop offset="1" stop-color="#8F8F8F"/>
</linearGradient>
<linearGradient id="paint17_linear_503_4545" x1="960.44" y1="419.5" x2="960.44" y2="842" gradientUnits="userSpaceOnUse">
<stop stop-color="#949494" stop-opacity="0"/>
<stop offset="1" stop-color="#8F8F8F"/>
</linearGradient>
<linearGradient id="paint18_linear_503_4545" x1="960.44" y1="419.5" x2="960.44" y2="842" gradientUnits="userSpaceOnUse">
<stop stop-color="#949494" stop-opacity="0"/>
<stop offset="1" stop-color="#8F8F8F"/>
</linearGradient>
<linearGradient id="paint19_linear_503_4545" x1="960.44" y1="419.5" x2="960.44" y2="842" gradientUnits="userSpaceOnUse">
<stop stop-color="#949494" stop-opacity="0"/>
<stop offset="1" stop-color="#8F8F8F"/>
</linearGradient>
<linearGradient id="paint20_linear_503_4545" x1="960.44" y1="419.5" x2="960.44" y2="842" gradientUnits="userSpaceOnUse">
<stop stop-color="#949494" stop-opacity="0"/>
<stop offset="1" stop-color="#8F8F8F"/>
</linearGradient>
<linearGradient id="paint21_linear_503_4545" x1="960.44" y1="419.5" x2="960.44" y2="842" gradientUnits="userSpaceOnUse">
<stop stop-color="#949494" stop-opacity="0"/>
<stop offset="1" stop-color="#8F8F8F"/>
</linearGradient>
<linearGradient id="paint22_linear_503_4545" x1="960.44" y1="419.5" x2="960.44" y2="842" gradientUnits="userSpaceOnUse">
<stop stop-color="#949494" stop-opacity="0"/>
<stop offset="1" stop-color="#8F8F8F"/>
</linearGradient>
<linearGradient id="paint23_linear_503_4545" x1="960.44" y1="419.5" x2="960.44" y2="842" gradientUnits="userSpaceOnUse">
<stop stop-color="#949494" stop-opacity="0"/>
<stop offset="1" stop-color="#8F8F8F"/>
</linearGradient>
<linearGradient id="paint24_linear_503_4545" x1="960.44" y1="419.5" x2="960.44" y2="842" gradientUnits="userSpaceOnUse">
<stop stop-color="#949494" stop-opacity="0"/>
<stop offset="1" stop-color="#8F8F8F"/>
</linearGradient>
<linearGradient id="paint25_linear_503_4545" x1="960.44" y1="419.5" x2="960.44" y2="842" gradientUnits="userSpaceOnUse">
<stop stop-color="#949494" stop-opacity="0"/>
<stop offset="1" stop-color="#8F8F8F"/>
</linearGradient>
<linearGradient id="paint26_linear_503_4545" x1="960.44" y1="419.5" x2="960.44" y2="842" gradientUnits="userSpaceOnUse">
<stop stop-color="#949494" stop-opacity="0"/>
<stop offset="1" stop-color="#8F8F8F"/>
</linearGradient>
<linearGradient id="paint27_linear_503_4545" x1="960.44" y1="419.5" x2="960.44" y2="842" gradientUnits="userSpaceOnUse">
<stop stop-color="#949494" stop-opacity="0"/>
<stop offset="1" stop-color="#8F8F8F"/>
</linearGradient>
<linearGradient id="paint28_linear_503_4545" x1="960.44" y1="419.5" x2="960.44" y2="842" gradientUnits="userSpaceOnUse">
<stop stop-color="#949494" stop-opacity="0"/>
<stop offset="1" stop-color="#8F8F8F"/>
</linearGradient>
<linearGradient id="paint29_linear_503_4545" x1="960.44" y1="419.5" x2="960.44" y2="842" gradientUnits="userSpaceOnUse">
<stop stop-color="#949494" stop-opacity="0"/>
<stop offset="1" stop-color="#8F8F8F"/>
</linearGradient>
<linearGradient id="paint30_linear_503_4545" x1="960.44" y1="419.5" x2="960.44" y2="842" gradientUnits="userSpaceOnUse">
<stop stop-color="#949494" stop-opacity="0"/>
<stop offset="1" stop-color="#8F8F8F"/>
</linearGradient>
<linearGradient id="paint31_linear_503_4545" x1="960.44" y1="419.5" x2="960.44" y2="842" gradientUnits="userSpaceOnUse">
<stop stop-color="#949494" stop-opacity="0"/>
<stop offset="1" stop-color="#8F8F8F"/>
</linearGradient>
<linearGradient id="paint32_linear_503_4545" x1="960.44" y1="419.5" x2="960.44" y2="842" gradientUnits="userSpaceOnUse">
<stop stop-color="#949494" stop-opacity="0"/>
<stop offset="1" stop-color="#8F8F8F"/>
</linearGradient>
<linearGradient id="paint33_linear_503_4545" x1="960.44" y1="419.5" x2="960.44" y2="842" gradientUnits="userSpaceOnUse">
<stop stop-color="#949494" stop-opacity="0"/>
<stop offset="1" stop-color="#8F8F8F"/>
</linearGradient>
<linearGradient id="paint34_linear_503_4545" x1="960.44" y1="419.5" x2="960.44" y2="842" gradientUnits="userSpaceOnUse">
<stop stop-color="#949494" stop-opacity="0"/>
<stop offset="1" stop-color="#8F8F8F"/>
</linearGradient>
<linearGradient id="paint35_linear_503_4545" x1="960.44" y1="419.5" x2="960.44" y2="842" gradientUnits="userSpaceOnUse">
<stop stop-color="#949494" stop-opacity="0"/>
<stop offset="1" stop-color="#8F8F8F"/>
</linearGradient>
<linearGradient id="paint36_linear_503_4545" x1="960.44" y1="419.5" x2="960.44" y2="842" gradientUnits="userSpaceOnUse">
<stop stop-color="#949494" stop-opacity="0"/>
<stop offset="1" stop-color="#8F8F8F"/>
</linearGradient>
<linearGradient id="paint37_linear_503_4545" x1="960.44" y1="419.5" x2="960.44" y2="842" gradientUnits="userSpaceOnUse">
<stop stop-color="#949494" stop-opacity="0"/>
<stop offset="1" stop-color="#8F8F8F"/>
</linearGradient>
<linearGradient id="paint38_linear_503_4545" x1="960.44" y1="419.5" x2="960.44" y2="842" gradientUnits="userSpaceOnUse">
<stop stop-color="#949494" stop-opacity="0"/>
<stop offset="1" stop-color="#8F8F8F"/>
</linearGradient>
<linearGradient id="paint39_linear_503_4545" x1="960.44" y1="419.5" x2="960.44" y2="842" gradientUnits="userSpaceOnUse">
<stop stop-color="#949494" stop-opacity="0"/>
<stop offset="1" stop-color="#8F8F8F"/>
</linearGradient>
<linearGradient id="paint40_linear_503_4545" x1="960.44" y1="419.5" x2="960.44" y2="842" gradientUnits="userSpaceOnUse">
<stop stop-color="#949494" stop-opacity="0"/>
<stop offset="1" stop-color="#8F8F8F"/>
</linearGradient>
<linearGradient id="paint41_linear_503_4545" x1="960.44" y1="419.5" x2="960.44" y2="842" gradientUnits="userSpaceOnUse">
<stop stop-color="#949494" stop-opacity="0"/>
<stop offset="1" stop-color="#8F8F8F"/>
</linearGradient>
<linearGradient id="paint42_linear_503_4545" x1="960.44" y1="419.5" x2="960.44" y2="842" gradientUnits="userSpaceOnUse">
<stop stop-color="#949494" stop-opacity="0"/>
<stop offset="1" stop-color="#8F8F8F"/>
</linearGradient>
<linearGradient id="paint43_linear_503_4545" x1="960.44" y1="419.5" x2="960.44" y2="842" gradientUnits="userSpaceOnUse">
<stop stop-color="#949494" stop-opacity="0"/>
<stop offset="1" stop-color="#8F8F8F"/>
</linearGradient>
<linearGradient id="paint44_linear_503_4545" x1="960.44" y1="419.5" x2="960.44" y2="842" gradientUnits="userSpaceOnUse">
<stop stop-color="#949494" stop-opacity="0"/>
<stop offset="1" stop-color="#8F8F8F"/>
</linearGradient>
<linearGradient id="paint45_linear_503_4545" x1="960.44" y1="419.5" x2="960.44" y2="842" gradientUnits="userSpaceOnUse">
<stop stop-color="#949494" stop-opacity="0"/>
<stop offset="1" stop-color="#8F8F8F"/>
</linearGradient>
<linearGradient id="paint46_linear_503_4545" x1="960.44" y1="419.5" x2="960.44" y2="842" gradientUnits="userSpaceOnUse">
<stop stop-color="#949494" stop-opacity="0"/>
<stop offset="1" stop-color="#8F8F8F"/>
</linearGradient>
<linearGradient id="paint47_linear_503_4545" x1="960.44" y1="419.5" x2="960.44" y2="842" gradientUnits="userSpaceOnUse">
<stop stop-color="#949494" stop-opacity="0"/>
<stop offset="1" stop-color="#8F8F8F"/>
</linearGradient>
<linearGradient id="paint48_linear_503_4545" x1="960.44" y1="419.5" x2="960.44" y2="842" gradientUnits="userSpaceOnUse">
<stop stop-color="#949494" stop-opacity="0"/>
<stop offset="1" stop-color="#8F8F8F"/>
</linearGradient>
<linearGradient id="paint49_linear_503_4545" x1="960.44" y1="419.5" x2="960.44" y2="842" gradientUnits="userSpaceOnUse">
<stop stop-color="#949494" stop-opacity="0"/>
<stop offset="1" stop-color="#8F8F8F"/>
</linearGradient>
<linearGradient id="paint50_linear_503_4545" x1="960.44" y1="419.5" x2="960.44" y2="842" gradientUnits="userSpaceOnUse">
<stop stop-color="#949494" stop-opacity="0"/>
<stop offset="1" stop-color="#8F8F8F"/>
</linearGradient>
<linearGradient id="paint51_linear_503_4545" x1="960.44" y1="419.5" x2="960.44" y2="842" gradientUnits="userSpaceOnUse">
<stop stop-color="#949494" stop-opacity="0"/>
<stop offset="1" stop-color="#8F8F8F"/>
</linearGradient>
<linearGradient id="paint52_linear_503_4545" x1="960.44" y1="419.5" x2="960.44" y2="842" gradientUnits="userSpaceOnUse">
<stop stop-color="#949494" stop-opacity="0"/>
<stop offset="1" stop-color="#8F8F8F"/>
</linearGradient>
<linearGradient id="paint53_linear_503_4545" x1="960.44" y1="419.5" x2="960.44" y2="842" gradientUnits="userSpaceOnUse">
<stop stop-color="#949494" stop-opacity="0"/>
<stop offset="1" stop-color="#8F8F8F"/>
</linearGradient>
<linearGradient id="paint54_linear_503_4545" x1="960.44" y1="419.5" x2="960.44" y2="842" gradientUnits="userSpaceOnUse">
<stop stop-color="#949494" stop-opacity="0"/>
<stop offset="1" stop-color="#8F8F8F"/>
</linearGradient>
<linearGradient id="paint55_linear_503_4545" x1="960.44" y1="419.5" x2="960.44" y2="842" gradientUnits="userSpaceOnUse">
<stop stop-color="#949494" stop-opacity="0"/>
<stop offset="1" stop-color="#8F8F8F"/>
</linearGradient>
<linearGradient id="paint56_linear_503_4545" x1="960.44" y1="419.5" x2="960.44" y2="842" gradientUnits="userSpaceOnUse">
<stop stop-color="#949494" stop-opacity="0"/>
<stop offset="1" stop-color="#8F8F8F"/>
</linearGradient>
<linearGradient id="paint57_linear_503_4545" x1="960.44" y1="419.5" x2="960.44" y2="842" gradientUnits="userSpaceOnUse">
<stop stop-color="#949494" stop-opacity="0"/>
<stop offset="1" stop-color="#8F8F8F"/>
</linearGradient>
<linearGradient id="paint58_linear_503_4545" x1="960.44" y1="419.5" x2="960.44" y2="842" gradientUnits="userSpaceOnUse">
<stop stop-color="#949494" stop-opacity="0"/>
<stop offset="1" stop-color="#8F8F8F"/>
</linearGradient>
<linearGradient id="paint59_linear_503_4545" x1="960.44" y1="419.5" x2="960.44" y2="842" gradientUnits="userSpaceOnUse">
<stop stop-color="#949494" stop-opacity="0"/>
<stop offset="1" stop-color="#8F8F8F"/>
</linearGradient>
<linearGradient id="paint60_linear_503_4545" x1="960.44" y1="419.5" x2="960.44" y2="842" gradientUnits="userSpaceOnUse">
<stop stop-color="#949494" stop-opacity="0"/>
<stop offset="1" stop-color="#8F8F8F"/>
</linearGradient>
<linearGradient id="paint61_linear_503_4545" x1="960.44" y1="419.5" x2="960.44" y2="842" gradientUnits="userSpaceOnUse">
<stop stop-color="#949494" stop-opacity="0"/>
<stop offset="1" stop-color="#8F8F8F"/>
</linearGradient>
<linearGradient id="paint62_linear_503_4545" x1="960.44" y1="419.5" x2="960.44" y2="842" gradientUnits="userSpaceOnUse">
<stop stop-color="#949494" stop-opacity="0"/>
<stop offset="1" stop-color="#8F8F8F"/>
</linearGradient>
<linearGradient id="paint63_linear_503_4545" x1="960.44" y1="419.5" x2="960.44" y2="842" gradientUnits="userSpaceOnUse">
<stop stop-color="#949494" stop-opacity="0"/>
<stop offset="1" stop-color="#8F8F8F"/>
</linearGradient>
<linearGradient id="paint64_linear_503_4545" x1="960.44" y1="419.5" x2="960.44" y2="842" gradientUnits="userSpaceOnUse">
<stop stop-color="#949494" stop-opacity="0"/>
<stop offset="1" stop-color="#8F8F8F"/>
</linearGradient>
<linearGradient id="paint65_linear_503_4545" x1="960.44" y1="419.5" x2="960.44" y2="842" gradientUnits="userSpaceOnUse">
<stop stop-color="#949494" stop-opacity="0"/>
<stop offset="1" stop-color="#8F8F8F"/>
</linearGradient>
<linearGradient id="paint66_linear_503_4545" x1="960.44" y1="419.5" x2="960.44" y2="842" gradientUnits="userSpaceOnUse">
<stop stop-color="#949494" stop-opacity="0"/>
<stop offset="1" stop-color="#8F8F8F"/>
</linearGradient>
<linearGradient id="paint67_linear_503_4545" x1="960.44" y1="419.5" x2="960.44" y2="842" gradientUnits="userSpaceOnUse">
<stop stop-color="#949494" stop-opacity="0"/>
<stop offset="1" stop-color="#8F8F8F"/>
</linearGradient>
<linearGradient id="paint68_linear_503_4545" x1="960.44" y1="419.5" x2="960.44" y2="842" gradientUnits="userSpaceOnUse">
<stop stop-color="#949494" stop-opacity="0"/>
<stop offset="1" stop-color="#8F8F8F"/>
</linearGradient>
<linearGradient id="paint69_linear_503_4545" x1="960.44" y1="419.5" x2="960.44" y2="842" gradientUnits="userSpaceOnUse">
<stop stop-color="#949494" stop-opacity="0"/>
<stop offset="1" stop-color="#8F8F8F"/>
</linearGradient>
<linearGradient id="paint70_linear_503_4545" x1="960.44" y1="419.5" x2="960.44" y2="842" gradientUnits="userSpaceOnUse">
<stop stop-color="#949494" stop-opacity="0"/>
<stop offset="1" stop-color="#8F8F8F"/>
</linearGradient>
<linearGradient id="paint71_linear_503_4545" x1="960.44" y1="419.5" x2="960.44" y2="842" gradientUnits="userSpaceOnUse">
<stop stop-color="#949494" stop-opacity="0"/>
<stop offset="1" stop-color="#8F8F8F"/>
</linearGradient>
<linearGradient id="paint72_linear_503_4545" x1="960.44" y1="419.5" x2="960.44" y2="842" gradientUnits="userSpaceOnUse">
<stop stop-color="#949494" stop-opacity="0"/>
<stop offset="1" stop-color="#8F8F8F"/>
</linearGradient>
<linearGradient id="paint73_linear_503_4545" x1="960.44" y1="419.5" x2="960.44" y2="842" gradientUnits="userSpaceOnUse">
<stop stop-color="#949494" stop-opacity="0"/>
<stop offset="1" stop-color="#8F8F8F"/>
</linearGradient>
<linearGradient id="paint74_linear_503_4545" x1="960.44" y1="419.5" x2="960.44" y2="842" gradientUnits="userSpaceOnUse">
<stop stop-color="#949494" stop-opacity="0"/>
<stop offset="1" stop-color="#8F8F8F"/>
</linearGradient>
<linearGradient id="paint75_linear_503_4545" x1="960.44" y1="419.5" x2="960.44" y2="842" gradientUnits="userSpaceOnUse">
<stop stop-color="#949494" stop-opacity="0"/>
<stop offset="1" stop-color="#8F8F8F"/>
</linearGradient>
<linearGradient id="paint76_linear_503_4545" x1="960.44" y1="419.5" x2="960.44" y2="842" gradientUnits="userSpaceOnUse">
<stop stop-color="#949494" stop-opacity="0"/>
<stop offset="1" stop-color="#8F8F8F"/>
</linearGradient>
<linearGradient id="paint77_linear_503_4545" x1="960.44" y1="419.5" x2="960.44" y2="842" gradientUnits="userSpaceOnUse">
<stop stop-color="#949494" stop-opacity="0"/>
<stop offset="1" stop-color="#8F8F8F"/>
</linearGradient>
<linearGradient id="paint78_linear_503_4545" x1="960.44" y1="419.5" x2="960.44" y2="842" gradientUnits="userSpaceOnUse">
<stop stop-color="#949494" stop-opacity="0"/>
<stop offset="1" stop-color="#8F8F8F"/>
</linearGradient>
<linearGradient id="paint79_linear_503_4545" x1="960.44" y1="419.5" x2="960.44" y2="842" gradientUnits="userSpaceOnUse">
<stop stop-color="#949494" stop-opacity="0"/>
<stop offset="1" stop-color="#8F8F8F"/>
</linearGradient>
<linearGradient id="paint80_linear_503_4545" x1="960.44" y1="419.5" x2="960.44" y2="842" gradientUnits="userSpaceOnUse">
<stop stop-color="#949494" stop-opacity="0"/>
<stop offset="1" stop-color="#8F8F8F"/>
</linearGradient>
<linearGradient id="paint81_linear_503_4545" x1="960.44" y1="419.5" x2="960.44" y2="842" gradientUnits="userSpaceOnUse">
<stop stop-color="#949494" stop-opacity="0"/>
<stop offset="1" stop-color="#8F8F8F"/>
</linearGradient>
<linearGradient id="paint82_linear_503_4545" x1="960.44" y1="419.5" x2="960.44" y2="842" gradientUnits="userSpaceOnUse">
<stop stop-color="#949494" stop-opacity="0"/>
<stop offset="1" stop-color="#8F8F8F"/>
</linearGradient>
<linearGradient id="paint83_linear_503_4545" x1="960.44" y1="419.5" x2="960.44" y2="842" gradientUnits="userSpaceOnUse">
<stop stop-color="#949494" stop-opacity="0"/>
<stop offset="1" stop-color="#8F8F8F"/>
</linearGradient>
<linearGradient id="paint84_linear_503_4545" x1="960.44" y1="419.5" x2="960.44" y2="842" gradientUnits="userSpaceOnUse">
<stop stop-color="#949494" stop-opacity="0"/>
<stop offset="1" stop-color="#8F8F8F"/>
</linearGradient>
<linearGradient id="paint85_linear_503_4545" x1="960.44" y1="419.5" x2="960.44" y2="842" gradientUnits="userSpaceOnUse">
<stop stop-color="#949494" stop-opacity="0"/>
<stop offset="1" stop-color="#8F8F8F"/>
</linearGradient>
<linearGradient id="paint86_linear_503_4545" x1="960.44" y1="419.5" x2="960.44" y2="842" gradientUnits="userSpaceOnUse">
<stop stop-color="#949494" stop-opacity="0"/>
<stop offset="1" stop-color="#8F8F8F"/>
</linearGradient>
<linearGradient id="paint87_linear_503_4545" x1="960.44" y1="419.5" x2="960.44" y2="842" gradientUnits="userSpaceOnUse">
<stop stop-color="#949494" stop-opacity="0"/>
<stop offset="1" stop-color="#8F8F8F"/>
</linearGradient>
<linearGradient id="paint88_linear_503_4545" x1="960.44" y1="419.5" x2="960.44" y2="842" gradientUnits="userSpaceOnUse">
<stop stop-color="#949494" stop-opacity="0"/>
<stop offset="1" stop-color="#8F8F8F"/>
</linearGradient>
<linearGradient id="paint89_linear_503_4545" x1="960.44" y1="419.5" x2="960.44" y2="842" gradientUnits="userSpaceOnUse">
<stop stop-color="#949494" stop-opacity="0"/>
<stop offset="1" stop-color="#8F8F8F"/>
</linearGradient>
<linearGradient id="paint90_linear_503_4545" x1="960.44" y1="419.5" x2="960.44" y2="842" gradientUnits="userSpaceOnUse">
<stop stop-color="#949494" stop-opacity="0"/>
<stop offset="1" stop-color="#8F8F8F"/>
</linearGradient>
<linearGradient id="paint91_linear_503_4545" x1="960.44" y1="419.5" x2="960.44" y2="842" gradientUnits="userSpaceOnUse">
<stop stop-color="#949494" stop-opacity="0"/>
<stop offset="1" stop-color="#8F8F8F"/>
</linearGradient>
<linearGradient id="paint92_linear_503_4545" x1="960.44" y1="419.5" x2="960.44" y2="842" gradientUnits="userSpaceOnUse">
<stop stop-color="#949494" stop-opacity="0"/>
<stop offset="1" stop-color="#8F8F8F"/>
</linearGradient>
<linearGradient id="paint93_linear_503_4545" x1="960.44" y1="419.5" x2="960.44" y2="842" gradientUnits="userSpaceOnUse">
<stop stop-color="#949494" stop-opacity="0"/>
<stop offset="1" stop-color="#8F8F8F"/>
</linearGradient>
<linearGradient id="paint94_linear_503_4545" x1="960.44" y1="419.5" x2="960.44" y2="842" gradientUnits="userSpaceOnUse">
<stop stop-color="#949494" stop-opacity="0"/>
<stop offset="1" stop-color="#8F8F8F"/>
</linearGradient>
<linearGradient id="paint95_linear_503_4545" x1="960.44" y1="419.5" x2="960.44" y2="842" gradientUnits="userSpaceOnUse">
<stop stop-color="#949494" stop-opacity="0"/>
<stop offset="1" stop-color="#8F8F8F"/>
</linearGradient>
<linearGradient id="paint96_linear_503_4545" x1="960.44" y1="419.5" x2="960.44" y2="842" gradientUnits="userSpaceOnUse">
<stop stop-color="#949494" stop-opacity="0"/>
<stop offset="1" stop-color="#8F8F8F"/>
</linearGradient>
<linearGradient id="paint97_linear_503_4545" x1="960.44" y1="419.5" x2="960.44" y2="842" gradientUnits="userSpaceOnUse">
<stop stop-color="#949494" stop-opacity="0"/>
<stop offset="1" stop-color="#8F8F8F"/>
</linearGradient>
<linearGradient id="paint98_linear_503_4545" x1="960.44" y1="419.5" x2="960.44" y2="842" gradientUnits="userSpaceOnUse">
<stop stop-color="#949494" stop-opacity="0"/>
<stop offset="1" stop-color="#8F8F8F"/>
</linearGradient>
<linearGradient id="paint99_linear_503_4545" x1="960.44" y1="419.5" x2="960.44" y2="842" gradientUnits="userSpaceOnUse">
<stop stop-color="#949494" stop-opacity="0"/>
<stop offset="1" stop-color="#8F8F8F"/>
</linearGradient>
<linearGradient id="paint100_linear_503_4545" x1="960.44" y1="419.5" x2="960.44" y2="842" gradientUnits="userSpaceOnUse">
<stop stop-color="#949494" stop-opacity="0"/>
<stop offset="1" stop-color="#8F8F8F"/>
</linearGradient>
<linearGradient id="paint101_linear_503_4545" x1="960.44" y1="419.5" x2="960.44" y2="842" gradientUnits="userSpaceOnUse">
<stop stop-color="#949494" stop-opacity="0"/>
<stop offset="1" stop-color="#8F8F8F"/>
</linearGradient>
<linearGradient id="paint102_linear_503_4545" x1="960.44" y1="419.5" x2="960.44" y2="842" gradientUnits="userSpaceOnUse">
<stop stop-color="#949494" stop-opacity="0"/>
<stop offset="1" stop-color="#8F8F8F"/>
</linearGradient>
<linearGradient id="paint103_linear_503_4545" x1="960.44" y1="419.5" x2="960.44" y2="842" gradientUnits="userSpaceOnUse">
<stop stop-color="#949494" stop-opacity="0"/>
<stop offset="1" stop-color="#8F8F8F"/>
</linearGradient>
<linearGradient id="paint104_linear_503_4545" x1="960.44" y1="419.5" x2="960.44" y2="842" gradientUnits="userSpaceOnUse">
<stop stop-color="#949494" stop-opacity="0"/>
<stop offset="1" stop-color="#8F8F8F"/>
</linearGradient>
<linearGradient id="paint105_linear_503_4545" x1="960.44" y1="419.5" x2="960.44" y2="842" gradientUnits="userSpaceOnUse">
<stop stop-color="#949494" stop-opacity="0"/>
<stop offset="1" stop-color="#8F8F8F"/>
</linearGradient>
<linearGradient id="paint106_linear_503_4545" x1="960.44" y1="419.5" x2="960.44" y2="842" gradientUnits="userSpaceOnUse">
<stop stop-color="#949494" stop-opacity="0"/>
<stop offset="1" stop-color="#8F8F8F"/>
</linearGradient>
<linearGradient id="paint107_linear_503_4545" x1="960.44" y1="419.5" x2="960.44" y2="842" gradientUnits="userSpaceOnUse">
<stop stop-color="#949494" stop-opacity="0"/>
<stop offset="1" stop-color="#8F8F8F"/>
</linearGradient>
<linearGradient id="paint108_linear_503_4545" x1="960.44" y1="419.5" x2="960.44" y2="842" gradientUnits="userSpaceOnUse">
<stop stop-color="#949494" stop-opacity="0"/>
<stop offset="1" stop-color="#8F8F8F"/>
</linearGradient>
<linearGradient id="paint109_linear_503_4545" x1="960.44" y1="419.5" x2="960.44" y2="842" gradientUnits="userSpaceOnUse">
<stop stop-color="#949494" stop-opacity="0"/>
<stop offset="1" stop-color="#8F8F8F"/>
</linearGradient>
<linearGradient id="paint110_linear_503_4545" x1="960.44" y1="419.5" x2="960.44" y2="842" gradientUnits="userSpaceOnUse">
<stop stop-color="#949494" stop-opacity="0"/>
<stop offset="1" stop-color="#8F8F8F"/>
</linearGradient>
<linearGradient id="paint111_linear_503_4545" x1="960.44" y1="419.5" x2="960.44" y2="842" gradientUnits="userSpaceOnUse">
<stop stop-color="#949494" stop-opacity="0"/>
<stop offset="1" stop-color="#8F8F8F"/>
</linearGradient>
<linearGradient id="paint112_linear_503_4545" x1="960.44" y1="419.5" x2="960.44" y2="842" gradientUnits="userSpaceOnUse">
<stop stop-color="#949494" stop-opacity="0"/>
<stop offset="1" stop-color="#8F8F8F"/>
</linearGradient>
<linearGradient id="paint113_linear_503_4545" x1="960.44" y1="419.5" x2="960.44" y2="842" gradientUnits="userSpaceOnUse">
<stop stop-color="#949494" stop-opacity="0"/>
<stop offset="1" stop-color="#8F8F8F"/>
</linearGradient>
<linearGradient id="paint114_linear_503_4545" x1="960.44" y1="419.5" x2="960.44" y2="842" gradientUnits="userSpaceOnUse">
<stop stop-color="#949494" stop-opacity="0"/>
<stop offset="1" stop-color="#8F8F8F"/>
</linearGradient>
<linearGradient id="paint115_linear_503_4545" x1="960.44" y1="419.5" x2="960.44" y2="842" gradientUnits="userSpaceOnUse">
<stop stop-color="#949494" stop-opacity="0"/>
<stop offset="1" stop-color="#8F8F8F"/>
</linearGradient>
<linearGradient id="paint116_linear_503_4545" x1="960.44" y1="419.5" x2="960.44" y2="842" gradientUnits="userSpaceOnUse">
<stop stop-color="#949494" stop-opacity="0"/>
<stop offset="1" stop-color="#8F8F8F"/>
</linearGradient>
<linearGradient id="paint117_linear_503_4545" x1="960.44" y1="419.5" x2="960.44" y2="842" gradientUnits="userSpaceOnUse">
<stop stop-color="#949494" stop-opacity="0"/>
<stop offset="1" stop-color="#8F8F8F"/>
</linearGradient>
<linearGradient id="paint118_linear_503_4545" x1="960.44" y1="419.5" x2="960.44" y2="842" gradientUnits="userSpaceOnUse">
<stop stop-color="#949494" stop-opacity="0"/>
<stop offset="1" stop-color="#8F8F8F"/>
</linearGradient>
<linearGradient id="paint119_linear_503_4545" x1="960.44" y1="419.5" x2="960.44" y2="842" gradientUnits="userSpaceOnUse">
<stop stop-color="#949494" stop-opacity="0"/>
<stop offset="1" stop-color="#8F8F8F"/>
</linearGradient>
</defs>
</svg>
